<svg xmlns="http://www.w3.org/2000/svg" viewBox="0 0 720 1280">
  <defs><linearGradient id="bg" y2="1"><stop stop-color="#07111d"/><stop offset="1" stop-color="#101923"/></linearGradient><linearGradient id="door"><stop stop-color="#8fc1e6" stop-opacity=".65"/><stop offset="1" stop-color="#41637d" stop-opacity=".08"/></linearGradient></defs>
  <rect width="720" height="1280" fill="url(#bg)"/><path d="M0 790L720 705V1280H0Z" fill="#0a1017"/><path d="M430 90h230v780H430Z" fill="#060a0f" stroke="#3b4c5d" stroke-width="5"/><path d="M630 105h30v750h-30Z" fill="url(#door)"/>
  <rect x="68" y="282" width="285" height="36" fill="#293746"/><rect x="68" y="470" width="285" height="36" fill="#293746"/><rect x="68" y="658" width="285" height="36" fill="#293746"/>
  <g fill="#172531"><rect x="88" y="210" width="48" height="72"/><rect x="148" y="190" width="37" height="92"/><rect x="202" y="224" width="62" height="58"/><rect x="98" y="392" width="76" height="78"/><rect x="188" y="375" width="50" height="95"/></g>
  <path d="M490 1280c-7-230 10-414 96-414 69 0 84 183 70 414Z" fill="#0a0d12"/><circle cx="575" cy="813" r="54" fill="#11161d"/>
  <ellipse cx="244" cy="900" rx="190" ry="80" fill="#020406" opacity=".85"/><rect x="171" y="823" width="150" height="85" rx="12" fill="#151e27" stroke="#60707e" stroke-width="4"/><circle cx="286" cy="850" r="8" fill="#ff4e3e"/>
  <path d="M70 180V70H180M540 70h110v110M70 1100v110h110M650 1100v110H540" fill="none" stroke="#78a7d8" stroke-width="3" opacity=".32"/>
  <text x="72" y="112" fill="#9fb7ce" font-family="sans-serif" font-size="22" letter-spacing="5">ENVIRONMENT / 03</text>
</svg>
